STARTFONT 2.1
COMMENT $Id: 6x12.bdf,v 1.32 2008-06-26 12:50:43+01 mgk25 Rel $
COMMENT Send bug reports to Markus Kuhn <http://www.cl.cam.ac.uk/~mgk25/>
FONT -Misc-Fixed-Medium-R-SemiCondensed--12-110-75-75-C-60-ISO10646-1
SIZE 12 75 75
FONTBOUNDINGBOX 6 12 0 -2
STARTPROPERTIES 11
FOUNDRY "Misc"
FAMILY_NAME "Fixed"
WEIGHT_NAME "Medium"
SLANT "R"
SETWIDTH_NAME "SemiCondensed"
SPACING "c"
CHARSET_REGISTRY "ISO-8859"
CHARSET_ENCODING "1"
COPYRIGHT "Public domain terminal emulator font.  Share and enjoy."
FONT_ASCENT  10
FONT_DESCENT 2
ENDPROPERTIES
CHARS 192
STARTCHAR char0
ENCODING 0
SWIDTH 500 0
DWIDTH 6 0
BBX 5 7 0 0
BITMAP
a8
00
88
00
88
00
a8
ENDCHAR
STARTCHAR space
ENCODING 32
SWIDTH 500 0
DWIDTH 6 0
BBX 0 0 0 0
BITMAP
ENDCHAR
STARTCHAR exclam
ENCODING 33
SWIDTH 500 0
DWIDTH 6 0
BBX 1 7 2 0
BITMAP
80
80
80
80
80
00
80
ENDCHAR
STARTCHAR quotedbl
ENCODING 34
SWIDTH 500 0
DWIDTH 6 0
BBX 3 3 1 5
BITMAP
a0
a0
a0
ENDCHAR
STARTCHAR numbersign
ENCODING 35
SWIDTH 500 0
DWIDTH 6 0
BBX 5 6 0 0
BITMAP
50
f8
50
50
f8
50
ENDCHAR
STARTCHAR dollar
ENCODING 36
SWIDTH 500 0
DWIDTH 6 0
BBX 5 9 0 -1
BITMAP
20
70
a8
a0
70
28
a8
70
20
ENDCHAR
STARTCHAR percent
ENCODING 37
SWIDTH 500 0
DWIDTH 6 0
BBX 5 7 0 0
BITMAP
c8
c8
10
20
40
98
98
ENDCHAR
STARTCHAR ampersand
ENCODING 38
SWIDTH 500 0
DWIDTH 6 0
BBX 5 7 0 0
BITMAP
40
a0
a0
40
a8
90
68
ENDCHAR
STARTCHAR quotesingle
ENCODING 39
SWIDTH 500 0
DWIDTH 6 0
BBX 1 3 2 5
BITMAP
80
80
80
ENDCHAR
STARTCHAR parenleft
ENCODING 40
SWIDTH 500 0
DWIDTH 6 0
BBX 3 9 1 -1
BITMAP
20
40
40
80
80
80
40
40
20
ENDCHAR
STARTCHAR parenright
ENCODING 41
SWIDTH 500 0
DWIDTH 6 0
BBX 3 9 1 -1
BITMAP
80
40
40
20
20
20
40
40
80
ENDCHAR
STARTCHAR asterisk
ENCODING 42
SWIDTH 500 0
DWIDTH 6 0
BBX 5 7 0 0
BITMAP
20
a8
70
20
70
a8
20
ENDCHAR
STARTCHAR plus
ENCODING 43
SWIDTH 500 0
DWIDTH 6 0
BBX 5 5 0 1
BITMAP
20
20
f8
20
20
ENDCHAR
STARTCHAR comma
ENCODING 44
SWIDTH 500 0
DWIDTH 6 0
BBX 3 3 0 -1
BITMAP
60
60
c0
ENDCHAR
STARTCHAR hyphen
ENCODING 45
SWIDTH 500 0
DWIDTH 6 0
BBX 5 1 0 3
BITMAP
f8
ENDCHAR
STARTCHAR period
ENCODING 46
SWIDTH 500 0
DWIDTH 6 0
BBX 2 2 1 0
BITMAP
c0
c0
ENDCHAR
STARTCHAR slash
ENCODING 47
SWIDTH 500 0
DWIDTH 6 0
BBX 5 7 0 0
BITMAP
08
10
10
20
40
40
80
ENDCHAR
STARTCHAR zero
ENCODING 48
SWIDTH 500 0
DWIDTH 6 0
BBX 4 7 1 0
BITMAP
60
90
90
90
90
90
60
ENDCHAR
STARTCHAR one
ENCODING 49
SWIDTH 500 0
DWIDTH 6 0
BBX 3 7 1 0
BITMAP
40
c0
40
40
40
40
e0
ENDCHAR
STARTCHAR two
ENCODING 50
SWIDTH 500 0
DWIDTH 6 0
BBX 5 7 0 0
BITMAP
70
88
08
10
20
40
f8
ENDCHAR
STARTCHAR three
ENCODING 51
SWIDTH 500 0
DWIDTH 6 0
BBX 5 7 0 0
BITMAP
f8
08
10
30
08
88
70
ENDCHAR
STARTCHAR four
ENCODING 52
SWIDTH 500 0
DWIDTH 6 0
BBX 5 7 0 0
BITMAP
10
30
50
90
f8
10
10
ENDCHAR
STARTCHAR five
ENCODING 53
SWIDTH 500 0
DWIDTH 6 0
BBX 5 7 0 0
BITMAP
f8
80
f0
08
08
88
70
ENDCHAR
STARTCHAR six
ENCODING 54
SWIDTH 500 0
DWIDTH 6 0
BBX 5 7 0 0
BITMAP
30
40
80
f0
88
88
70
ENDCHAR
STARTCHAR seven
ENCODING 55
SWIDTH 500 0
DWIDTH 6 0
BBX 5 7 0 0
BITMAP
f8
08
10
10
20
20
20
ENDCHAR
STARTCHAR eight
ENCODING 56
SWIDTH 500 0
DWIDTH 6 0
BBX 5 7 0 0
BITMAP
70
88
88
70
88
88
70
ENDCHAR
STARTCHAR nine
ENCODING 57
SWIDTH 500 0
DWIDTH 6 0
BBX 5 7 0 0
BITMAP
70
88
88
78
08
10
60
ENDCHAR
STARTCHAR colon
ENCODING 58
SWIDTH 500 0
DWIDTH 6 0
BBX 1 5 2 1
BITMAP
80
80
00
80
80
ENDCHAR
STARTCHAR semicolon
ENCODING 59
SWIDTH 500 0
DWIDTH 6 0
BBX 3 6 0 -1
BITMAP
60
60
00
60
60
c0
ENDCHAR
STARTCHAR less
ENCODING 60
SWIDTH 500 0
DWIDTH 6 0
BBX 3 5 1 1
BITMAP
20
40
80
40
20
ENDCHAR
STARTCHAR equal
ENCODING 61
SWIDTH 500 0
DWIDTH 6 0
BBX 5 3 0 2
BITMAP
f8
00
f8
ENDCHAR
STARTCHAR greater
ENCODING 62
SWIDTH 500 0
DWIDTH 6 0
BBX 3 5 1 1
BITMAP
80
40
20
40
80
ENDCHAR
STARTCHAR question
ENCODING 63
SWIDTH 500 0
DWIDTH 6 0
BBX 5 7 0 0
BITMAP
70
88
10
20
20
00
20
ENDCHAR
STARTCHAR at
ENCODING 64
SWIDTH 500 0
DWIDTH 6 0
BBX 5 7 0 0
BITMAP
70
88
b8
a8
b8
80
70
ENDCHAR
STARTCHAR A
ENCODING 65
SWIDTH 500 0
DWIDTH 6 0
BBX 5 7 0 0
BITMAP
70
88
88
f8
88
88
88
ENDCHAR
STARTCHAR B
ENCODING 66
SWIDTH 500 0
DWIDTH 6 0
BBX 5 7 0 0
BITMAP
f0
48
48
70
48
48
f0
ENDCHAR
STARTCHAR C
ENCODING 67
SWIDTH 500 0
DWIDTH 6 0
BBX 5 7 0 0
BITMAP
70
88
80
80
80
88
70
ENDCHAR
STARTCHAR D
ENCODING 68
SWIDTH 500 0
DWIDTH 6 0
BBX 5 7 0 0
BITMAP
f0
48
48
48
48
48
f0
ENDCHAR
STARTCHAR E
ENCODING 69
SWIDTH 500 0
DWIDTH 6 0
BBX 5 7 0 0
BITMAP
f8
80
80
f0
80
80
f8
ENDCHAR
STARTCHAR F
ENCODING 70
SWIDTH 500 0
DWIDTH 6 0
BBX 5 7 0 0
BITMAP
f8
80
80
f0
80
80
80
ENDCHAR
STARTCHAR G
ENCODING 71
SWIDTH 500 0
DWIDTH 6 0
BBX 5 7 0 0
BITMAP
70
88
80
80
98
88
70
ENDCHAR
STARTCHAR H
ENCODING 72
SWIDTH 500 0
DWIDTH 6 0
BBX 5 7 0 0
BITMAP
88
88
88
f8
88
88
88
ENDCHAR
STARTCHAR I
ENCODING 73
SWIDTH 500 0
DWIDTH 6 0
BBX 3 7 1 0
BITMAP
e0
40
40
40
40
40
e0
ENDCHAR
STARTCHAR J
ENCODING 74
SWIDTH 500 0
DWIDTH 6 0
BBX 5 7 0 0
BITMAP
38
10
10
10
10
90
60
ENDCHAR
STARTCHAR K
ENCODING 75
SWIDTH 500 0
DWIDTH 6 0
BBX 5 7 0 0
BITMAP
88
90
a0
c0
a0
90
88
ENDCHAR
STARTCHAR L
ENCODING 76
SWIDTH 500 0
DWIDTH 6 0
BBX 5 7 0 0
BITMAP
80
80
80
80
80
80
f8
ENDCHAR
STARTCHAR M
ENCODING 77
SWIDTH 500 0
DWIDTH 6 0
BBX 5 7 0 0
BITMAP
88
d8
a8
88
88
88
88
ENDCHAR
STARTCHAR N
ENCODING 78
SWIDTH 500 0
DWIDTH 6 0
BBX 5 7 0 0
BITMAP
88
88
c8
a8
98
88
88
ENDCHAR
STARTCHAR O
ENCODING 79
SWIDTH 500 0
DWIDTH 6 0
BBX 5 7 0 0
BITMAP
70
88
88
88
88
88
70
ENDCHAR
STARTCHAR P
ENCODING 80
SWIDTH 500 0
DWIDTH 6 0
BBX 5 7 0 0
BITMAP
f0
88
88
f0
80
80
80
ENDCHAR
STARTCHAR Q
ENCODING 81
SWIDTH 500 0
DWIDTH 6 0
BBX 5 7 0 0
BITMAP
70
88
88
88
a8
90
68
ENDCHAR
STARTCHAR R
ENCODING 82
SWIDTH 500 0
DWIDTH 6 0
BBX 5 7 0 0
BITMAP
f0
88
88
f0
a0
90
88
ENDCHAR
STARTCHAR S
ENCODING 83
SWIDTH 500 0
DWIDTH 6 0
BBX 5 7 0 0
BITMAP
70
88
80
70
08
88
70
ENDCHAR
STARTCHAR T
ENCODING 84
SWIDTH 500 0
DWIDTH 6 0
BBX 5 7 0 0
BITMAP
f8
20
20
20
20
20
20
ENDCHAR
STARTCHAR U
ENCODING 85
SWIDTH 500 0
DWIDTH 6 0
BBX 5 7 0 0
BITMAP
88
88
88
88
88
88
70
ENDCHAR
STARTCHAR V
ENCODING 86
SWIDTH 500 0
DWIDTH 6 0
BBX 5 7 0 0
BITMAP
88
88
88
88
50
50
20
ENDCHAR
STARTCHAR W
ENCODING 87
SWIDTH 500 0
DWIDTH 6 0
BBX 5 7 0 0
BITMAP
88
88
88
88
a8
a8
50
ENDCHAR
STARTCHAR X
ENCODING 88
SWIDTH 500 0
DWIDTH 6 0
BBX 5 7 0 0
BITMAP
88
88
50
20
50
88
88
ENDCHAR
STARTCHAR Y
ENCODING 89
SWIDTH 500 0
DWIDTH 6 0
BBX 5 7 0 0
BITMAP
88
88
50
20
20
20
20
ENDCHAR
STARTCHAR Z
ENCODING 90
SWIDTH 500 0
DWIDTH 6 0
BBX 5 7 0 0
BITMAP
f8
08
10
20
40
80
f8
ENDCHAR
STARTCHAR bracketleft
ENCODING 91
SWIDTH 500 0
DWIDTH 6 0
BBX 3 9 1 -1
BITMAP
e0
80
80
80
80
80
80
80
e0
ENDCHAR
STARTCHAR backslash
ENCODING 92
SWIDTH 500 0
DWIDTH 6 0
BBX 5 7 0 0
BITMAP
80
40
40
20
10
10
08
ENDCHAR
STARTCHAR bracketright
ENCODING 93
SWIDTH 500 0
DWIDTH 6 0
BBX 3 9 1 -1
BITMAP
e0
20
20
20
20
20
20
20
e0
ENDCHAR
STARTCHAR asciicircum
ENCODING 94
SWIDTH 500 0
DWIDTH 6 0
BBX 5 3 0 5
BITMAP
20
50
88
ENDCHAR
STARTCHAR underscore
ENCODING 95
SWIDTH 500 0
DWIDTH 6 0
BBX 5 1 0 -2
BITMAP
f8
ENDCHAR
STARTCHAR grave
ENCODING 96
SWIDTH 500 0
DWIDTH 6 0
BBX 3 3 1 5
BITMAP
80
40
20
ENDCHAR
STARTCHAR a
ENCODING 97
SWIDTH 500 0
DWIDTH 6 0
BBX 5 5 0 0
BITMAP
70
08
78
88
78
ENDCHAR
STARTCHAR b
ENCODING 98
SWIDTH 500 0
DWIDTH 6 0
BBX 5 7 0 0
BITMAP
80
80
f0
88
88
88
f0
ENDCHAR
STARTCHAR c
ENCODING 99
SWIDTH 500 0
DWIDTH 6 0
BBX 5 5 0 0
BITMAP
70
88
80
88
70
ENDCHAR
STARTCHAR d
ENCODING 100
SWIDTH 500 0
DWIDTH 6 0
BBX 5 7 0 0
BITMAP
08
08
78
88
88
88
78
ENDCHAR
STARTCHAR e
ENCODING 101
SWIDTH 500 0
DWIDTH 6 0
BBX 5 5 0 0
BITMAP
70
88
f0
80
70
ENDCHAR
STARTCHAR f
ENCODING 102
SWIDTH 500 0
DWIDTH 6 0
BBX 5 7 0 0
BITMAP
30
48
40
e0
40
40
40
ENDCHAR
STARTCHAR g
ENCODING 103
SWIDTH 500 0
DWIDTH 6 0
BBX 5 7 0 -2
BITMAP
70
88
88
88
78
08
70
ENDCHAR
STARTCHAR h
ENCODING 104
SWIDTH 500 0
DWIDTH 6 0
BBX 5 7 0 0
BITMAP
80
80
f0
88
88
88
88
ENDCHAR
STARTCHAR i
ENCODING 105
SWIDTH 500 0
DWIDTH 6 0
BBX 3 7 1 0
BITMAP
40
00
c0
40
40
40
e0
ENDCHAR
STARTCHAR j
ENCODING 106
SWIDTH 500 0
DWIDTH 6 0
BBX 4 9 1 -2
BITMAP
10
00
30
10
10
10
10
90
60
ENDCHAR
STARTCHAR k
ENCODING 107
SWIDTH 500 0
DWIDTH 6 0
BBX 5 7 0 0
BITMAP
80
80
88
90
e0
90
88
ENDCHAR
STARTCHAR l
ENCODING 108
SWIDTH 500 0
DWIDTH 6 0
BBX 3 7 1 0
BITMAP
c0
40
40
40
40
40
e0
ENDCHAR
STARTCHAR m
ENCODING 109
SWIDTH 500 0
DWIDTH 6 0
BBX 5 5 0 0
BITMAP
d0
a8
a8
a8
a8
ENDCHAR
STARTCHAR n
ENCODING 110
SWIDTH 500 0
DWIDTH 6 0
BBX 5 5 0 0
BITMAP
b0
c8
88
88
88
ENDCHAR
STARTCHAR o
ENCODING 111
SWIDTH 500 0
DWIDTH 6 0
BBX 5 5 0 0
BITMAP
70
88
88
88
70
ENDCHAR
STARTCHAR p
ENCODING 112
SWIDTH 500 0
DWIDTH 6 0
BBX 5 7 0 -2
BITMAP
f0
88
88
88
f0
80
80
ENDCHAR
STARTCHAR q
ENCODING 113
SWIDTH 500 0
DWIDTH 6 0
BBX 5 7 0 -2
BITMAP
78
88
88
88
78
08
08
ENDCHAR
STARTCHAR r
ENCODING 114
SWIDTH 500 0
DWIDTH 6 0
BBX 5 5 0 0
BITMAP
b0
c8
80
80
80
ENDCHAR
STARTCHAR s
ENCODING 115
SWIDTH 500 0
DWIDTH 6 0
BBX 5 5 0 0
BITMAP
78
80
70
08
f0
ENDCHAR
STARTCHAR t
ENCODING 116
SWIDTH 500 0
DWIDTH 6 0
BBX 5 7 0 0
BITMAP
20
20
f8
20
20
20
18
ENDCHAR
STARTCHAR u
ENCODING 117
SWIDTH 500 0
DWIDTH 6 0
BBX 5 5 0 0
BITMAP
88
88
88
98
68
ENDCHAR
STARTCHAR v
ENCODING 118
SWIDTH 500 0
DWIDTH 6 0
BBX 5 5 0 0
BITMAP
88
88
88
50
20
ENDCHAR
STARTCHAR w
ENCODING 119
SWIDTH 500 0
DWIDTH 6 0
BBX 5 5 0 0
BITMAP
88
88
a8
a8
50
ENDCHAR
STARTCHAR x
ENCODING 120
SWIDTH 500 0
DWIDTH 6 0
BBX 5 5 0 0
BITMAP
88
50
20
50
88
ENDCHAR
STARTCHAR y
ENCODING 121
SWIDTH 500 0
DWIDTH 6 0
BBX 5 7 0 -2
BITMAP
88
88
88
50
20
40
80
ENDCHAR
STARTCHAR z
ENCODING 122
SWIDTH 500 0
DWIDTH 6 0
BBX 5 5 0 0
BITMAP
f8
10
20
40
f8
ENDCHAR
STARTCHAR braceleft
ENCODING 123
SWIDTH 500 0
DWIDTH 6 0
BBX 3 9 1 -1
BITMAP
20
40
40
40
80
40
40
40
20
ENDCHAR
STARTCHAR bar
ENCODING 124
SWIDTH 500 0
DWIDTH 6 0
BBX 1 9 2 -1
BITMAP
80
80
80
80
80
80
80
80
80
ENDCHAR
STARTCHAR braceright
ENCODING 125
SWIDTH 500 0
DWIDTH 6 0
BBX 3 9 1 -1
BITMAP
80
40
40
40
20
40
40
40
80
ENDCHAR
STARTCHAR asciitilde
ENCODING 126
SWIDTH 500 0
DWIDTH 6 0
BBX 5 3 0 2
BITMAP
48
a8
90
ENDCHAR
STARTCHAR space
ENCODING 160
SWIDTH 500 0
DWIDTH 6 0
BBX 0 0 0 0
BITMAP
ENDCHAR
STARTCHAR exclamdown
ENCODING 161
SWIDTH 500 0
DWIDTH 6 0
BBX 1 7 2 0
BITMAP
80
00
80
80
80
80
80
ENDCHAR
STARTCHAR cent
ENCODING 162
SWIDTH 500 0
DWIDTH 6 0
BBX 5 7 0 -1
BITMAP
20
70
a8
a0
a8
70
20
ENDCHAR
STARTCHAR sterling
ENCODING 163
SWIDTH 500 0
DWIDTH 6 0
BBX 5 7 0 0
BITMAP
30
48
40
e0
40
48
b0
ENDCHAR
STARTCHAR currency
ENCODING 164
SWIDTH 500 0
DWIDTH 6 0
BBX 5 5 0 0
BITMAP
a8
50
88
50
a8
ENDCHAR
STARTCHAR yen
ENCODING 165
SWIDTH 500 0
DWIDTH 6 0
BBX 5 7 0 0
BITMAP
88
50
f8
20
f8
20
20
ENDCHAR
STARTCHAR brokenbar
ENCODING 166
SWIDTH 500 0
DWIDTH 6 0
BBX 1 7 2 0
BITMAP
80
80
80
00
80
80
80
ENDCHAR
STARTCHAR section
ENCODING 167
SWIDTH 500 0
DWIDTH 6 0
BBX 4 8 1 0
BITMAP
70
80
60
90
90
60
10
e0
ENDCHAR
STARTCHAR dieresis
ENCODING 168
SWIDTH 500 0
DWIDTH 6 0
BBX 3 1 1 7
BITMAP
a0
ENDCHAR
STARTCHAR copyright
ENCODING 169
SWIDTH 500 0
DWIDTH 6 0
BBX 6 7 0 0
BITMAP
78
84
94
a4
94
84
78
ENDCHAR
STARTCHAR ordfeminine
ENCODING 170
SWIDTH 500 0
DWIDTH 6 0
BBX 3 5 1 4
BITMAP
60
a0
60
00
e0
ENDCHAR
STARTCHAR guillemotleft
ENCODING 171
SWIDTH 500 0
DWIDTH 6 0
BBX 5 5 0 0
BITMAP
28
50
a0
50
28
ENDCHAR
STARTCHAR logicalnot
ENCODING 172
SWIDTH 500 0
DWIDTH 6 0
BBX 5 3 0 1
BITMAP
f8
08
08
ENDCHAR
STARTCHAR hyphen
ENCODING 173
SWIDTH 500 0
DWIDTH 6 0
BBX 3 1 1 3
BITMAP
e0
ENDCHAR
STARTCHAR registered
ENCODING 174
SWIDTH 500 0
DWIDTH 6 0
BBX 6 7 0 0
BITMAP
78
84
b4
a4
a4
84
78
ENDCHAR
STARTCHAR macron
ENCODING 175
SWIDTH 500 0
DWIDTH 6 0
BBX 5 1 0 7
BITMAP
f8
ENDCHAR
STARTCHAR degree
ENCODING 176
SWIDTH 500 0
DWIDTH 6 0
BBX 4 4 1 5
BITMAP
60
90
90
60
ENDCHAR
STARTCHAR plusminus
ENCODING 177
SWIDTH 500 0
DWIDTH 6 0
BBX 5 7 0 0
BITMAP
20
20
f8
20
20
00
f8
ENDCHAR
STARTCHAR twosuperior
ENCODING 178
SWIDTH 500 0
DWIDTH 6 0
BBX 3 5 1 5
BITMAP
40
a0
20
40
e0
ENDCHAR
STARTCHAR threesuperior
ENCODING 179
SWIDTH 500 0
DWIDTH 6 0
BBX 3 5 1 5
BITMAP
c0
20
40
20
c0
ENDCHAR
STARTCHAR acute
ENCODING 180
SWIDTH 500 0
DWIDTH 6 0
BBX 3 3 1 5
BITMAP
20
40
80
ENDCHAR
STARTCHAR mu
ENCODING 181
SWIDTH 500 0
DWIDTH 6 0
BBX 5 7 0 -2
BITMAP
88
88
88
98
e8
80
80
ENDCHAR
STARTCHAR paragraph
ENCODING 182
SWIDTH 500 0
DWIDTH 6 0
BBX 5 8 0 0
BITMAP
78
e8
e8
e8
68
28
28
28
ENDCHAR
STARTCHAR periodcentered
ENCODING 183
SWIDTH 500 0
DWIDTH 6 0
BBX 2 2 2 3
BITMAP
c0
c0
ENDCHAR
STARTCHAR cedilla
ENCODING 184
SWIDTH 500 0
DWIDTH 6 0
BBX 3 2 1 -2
BITMAP
20
c0
ENDCHAR
STARTCHAR onesuperior
ENCODING 185
SWIDTH 500 0
DWIDTH 6 0
BBX 3 5 1 5
BITMAP
40
c0
40
40
e0
ENDCHAR
STARTCHAR ordmasculine
ENCODING 186
SWIDTH 500 0
DWIDTH 6 0
BBX 3 5 1 5
BITMAP
40
a0
40
00
e0
ENDCHAR
STARTCHAR guillemotright
ENCODING 187
SWIDTH 500 0
DWIDTH 6 0
BBX 5 5 0 0
BITMAP
a0
50
28
50
a0
ENDCHAR
STARTCHAR onequarter
ENCODING 188
SWIDTH 500 0
DWIDTH 6 0
BBX 5 10 0 0
BITMAP
40
c0
40
40
50
30
50
78
10
10
ENDCHAR
STARTCHAR onehalf
ENCODING 189
SWIDTH 500 0
DWIDTH 6 0
BBX 5 10 0 0
BITMAP
40
c0
40
40
50
28
08
10
20
38
ENDCHAR
STARTCHAR threequarters
ENCODING 190
SWIDTH 500 0
DWIDTH 6 0
BBX 5 10 0 0
BITMAP
c0
20
40
20
d0
30
50
78
10
10
ENDCHAR
STARTCHAR questiondown
ENCODING 191
SWIDTH 500 0
DWIDTH 6 0
BBX 5 7 0 0
BITMAP
20
00
20
20
40
88
70
ENDCHAR
STARTCHAR Agrave
ENCODING 192
SWIDTH 500 0
DWIDTH 6 0
BBX 5 10 0 0
BITMAP
40
20
00
70
88
88
f8
88
88
88
ENDCHAR
STARTCHAR Aacute
ENCODING 193
SWIDTH 500 0
DWIDTH 6 0
BBX 5 10 0 0
BITMAP
10
20
00
70
88
88
f8
88
88
88
ENDCHAR
STARTCHAR Acircumflex
ENCODING 194
SWIDTH 500 0
DWIDTH 6 0
BBX 5 10 0 0
BITMAP
20
50
00
70
88
88
f8
88
88
88
ENDCHAR
STARTCHAR Atilde
ENCODING 195
SWIDTH 500 0
DWIDTH 6 0
BBX 5 10 0 0
BITMAP
68
b0
00
70
88
88
f8
88
88
88
ENDCHAR
STARTCHAR Adieresis
ENCODING 196
SWIDTH 500 0
DWIDTH 6 0
BBX 5 9 0 0
BITMAP
50
00
70
88
88
f8
88
88
88
ENDCHAR
STARTCHAR Aring
ENCODING 197
SWIDTH 500 0
DWIDTH 6 0
BBX 5 10 0 0
BITMAP
20
50
20
70
88
88
f8
88
88
88
ENDCHAR
STARTCHAR AE
ENCODING 198
SWIDTH 500 0
DWIDTH 6 0
BBX 5 7 0 0
BITMAP
78
a0
a0
f0
a0
a0
b8
ENDCHAR
STARTCHAR Ccedilla
ENCODING 199
SWIDTH 500 0
DWIDTH 6 0
BBX 5 9 0 -2
BITMAP
70
88
80
80
80
88
70
10
60
ENDCHAR
STARTCHAR Egrave
ENCODING 200
SWIDTH 500 0
DWIDTH 6 0
BBX 5 10 0 0
BITMAP
40
20
00
f8
80
80
f0
80
80
f8
ENDCHAR
STARTCHAR Eacute
ENCODING 201
SWIDTH 500 0
DWIDTH 6 0
BBX 5 10 0 0
BITMAP
10
20
00
f8
80
80
f0
80
80
f8
ENDCHAR
STARTCHAR Ecircumflex
ENCODING 202
SWIDTH 500 0
DWIDTH 6 0
BBX 5 10 0 0
BITMAP
20
50
00
f8
80
80
f0
80
80
f8
ENDCHAR
STARTCHAR Edieresis
ENCODING 203
SWIDTH 500 0
DWIDTH 6 0
BBX 5 9 0 0
BITMAP
50
00
f8
80
80
f0
80
80
f8
ENDCHAR
STARTCHAR Igrave
ENCODING 204
SWIDTH 500 0
DWIDTH 6 0
BBX 3 10 1 0
BITMAP
80
40
00
e0
40
40
40
40
40
e0
ENDCHAR
STARTCHAR Iacute
ENCODING 205
SWIDTH 500 0
DWIDTH 6 0
BBX 3 10 1 0
BITMAP
20
40
00
e0
40
40
40
40
40
e0
ENDCHAR
STARTCHAR Icircumflex
ENCODING 206
SWIDTH 500 0
DWIDTH 6 0
BBX 3 10 1 0
BITMAP
40
a0
00
e0
40
40
40
40
40
e0
ENDCHAR
STARTCHAR Idieresis
ENCODING 207
SWIDTH 500 0
DWIDTH 6 0
BBX 3 9 1 0
BITMAP
a0
00
e0
40
40
40
40
40
e0
ENDCHAR
STARTCHAR Eth
ENCODING 208
SWIDTH 500 0
DWIDTH 6 0
BBX 5 7 0 0
BITMAP
70
48
48
e8
48
48
70
ENDCHAR
STARTCHAR Ntilde
ENCODING 209
SWIDTH 500 0
DWIDTH 6 0
BBX 5 10 0 0
BITMAP
68
b0
00
88
88
c8
a8
98
88
88
ENDCHAR
STARTCHAR Ograve
ENCODING 210
SWIDTH 500 0
DWIDTH 6 0
BBX 5 10 0 0
BITMAP
40
20
00
70
88
88
88
88
88
70
ENDCHAR
STARTCHAR Oacute
ENCODING 211
SWIDTH 500 0
DWIDTH 6 0
BBX 5 10 0 0
BITMAP
10
20
00
70
88
88
88
88
88
70
ENDCHAR
STARTCHAR Ocircumflex
ENCODING 212
SWIDTH 500 0
DWIDTH 6 0
BBX 5 10 0 0
BITMAP
20
50
00
70
88
88
88
88
88
70
ENDCHAR
STARTCHAR Otilde
ENCODING 213
SWIDTH 500 0
DWIDTH 6 0
BBX 5 10 0 0
BITMAP
68
b0
00
70
88
88
88
88
88
70
ENDCHAR
STARTCHAR Odieresis
ENCODING 214
SWIDTH 500 0
DWIDTH 6 0
BBX 5 9 0 0
BITMAP
50
00
70
88
88
88
88
88
70
ENDCHAR
STARTCHAR multiply
ENCODING 215
SWIDTH 500 0
DWIDTH 6 0
BBX 5 5 0 1
BITMAP
88
50
20
50
88
ENDCHAR
STARTCHAR Oslash
ENCODING 216
SWIDTH 500 0
DWIDTH 6 0
BBX 5 9 0 -1
BITMAP
08
70
98
a8
a8
a8
c8
70
80
ENDCHAR
STARTCHAR Ugrave
ENCODING 217
SWIDTH 500 0
DWIDTH 6 0
BBX 5 10 0 0
BITMAP
40
20
00
88
88
88
88
88
88
70
ENDCHAR
STARTCHAR Uacute
ENCODING 218
SWIDTH 500 0
DWIDTH 6 0
BBX 5 10 0 0
BITMAP
10
20
00
88
88
88
88
88
88
70
ENDCHAR
STARTCHAR Ucircumflex
ENCODING 219
SWIDTH 500 0
DWIDTH 6 0
BBX 5 10 0 0
BITMAP
20
50
00
88
88
88
88
88
88
70
ENDCHAR
STARTCHAR Udieresis
ENCODING 220
SWIDTH 500 0
DWIDTH 6 0
BBX 5 9 0 0
BITMAP
50
00
88
88
88
88
88
88
70
ENDCHAR
STARTCHAR Yacute
ENCODING 221
SWIDTH 500 0
DWIDTH 6 0
BBX 5 10 0 0
BITMAP
10
20
00
88
88
50
20
20
20
20
ENDCHAR
STARTCHAR Thorn
ENCODING 222
SWIDTH 500 0
DWIDTH 6 0
BBX 4 7 1 0
BITMAP
80
e0
90
90
90
e0
80
ENDCHAR
STARTCHAR germandbls
ENCODING 223
SWIDTH 500 0
DWIDTH 6 0
BBX 5 7 0 0
BITMAP
70
88
90
a0
90
88
b0
ENDCHAR
STARTCHAR agrave
ENCODING 224
SWIDTH 500 0
DWIDTH 6 0
BBX 5 8 0 0
BITMAP
40
20
00
70
08
78
88
78
ENDCHAR
STARTCHAR aacute
ENCODING 225
SWIDTH 500 0
DWIDTH 6 0
BBX 5 8 0 0
BITMAP
10
20
00
70
08
78
88
78
ENDCHAR
STARTCHAR acircumflex
ENCODING 226
SWIDTH 500 0
DWIDTH 6 0
BBX 5 8 0 0
BITMAP
20
50
00
70
08
78
88
78
ENDCHAR
STARTCHAR atilde
ENCODING 227
SWIDTH 500 0
DWIDTH 6 0
BBX 5 8 0 0
BITMAP
68
b0
00
70
08
78
88
78
ENDCHAR
STARTCHAR adieresis
ENCODING 228
SWIDTH 500 0
DWIDTH 6 0
BBX 5 7 0 0
BITMAP
50
00
70
08
78
88
78
ENDCHAR
STARTCHAR aring
ENCODING 229
SWIDTH 500 0
DWIDTH 6 0
BBX 5 8 0 0
BITMAP
20
50
20
70
08
78
88
78
ENDCHAR
STARTCHAR ae
ENCODING 230
SWIDTH 500 0
DWIDTH 6 0
BBX 5 5 0 0
BITMAP
70
28
70
a0
78
ENDCHAR
STARTCHAR ccedilla
ENCODING 231
SWIDTH 500 0
DWIDTH 6 0
BBX 5 7 0 -2
BITMAP
70
88
80
88
70
10
60
ENDCHAR
STARTCHAR egrave
ENCODING 232
SWIDTH 500 0
DWIDTH 6 0
BBX 5 8 0 0
BITMAP
40
20
00
70
88
f0
80
70
ENDCHAR
STARTCHAR eacute
ENCODING 233
SWIDTH 500 0
DWIDTH 6 0
BBX 5 8 0 0
BITMAP
10
20
00
70
88
f0
80
70
ENDCHAR
STARTCHAR ecircumflex
ENCODING 234
SWIDTH 500 0
DWIDTH 6 0
BBX 5 8 0 0
BITMAP
20
50
00
70
88
f0
80
70
ENDCHAR
STARTCHAR edieresis
ENCODING 235
SWIDTH 500 0
DWIDTH 6 0
BBX 5 7 0 0
BITMAP
50
00
70
88
f0
80
70
ENDCHAR
STARTCHAR igrave
ENCODING 236
SWIDTH 500 0
DWIDTH 6 0
BBX 3 8 1 0
BITMAP
80
40
00
c0
40
40
40
e0
ENDCHAR
STARTCHAR iacute
ENCODING 237
SWIDTH 500 0
DWIDTH 6 0
BBX 3 8 1 0
BITMAP
20
40
00
c0
40
40
40
e0
ENDCHAR
STARTCHAR icircumflex
ENCODING 238
SWIDTH 500 0
DWIDTH 6 0
BBX 3 8 1 0
BITMAP
40
a0
00
c0
40
40
40
e0
ENDCHAR
STARTCHAR idieresis
ENCODING 239
SWIDTH 500 0
DWIDTH 6 0
BBX 3 7 1 0
BITMAP
a0
00
c0
40
40
40
e0
ENDCHAR
STARTCHAR eth
ENCODING 240
SWIDTH 500 0
DWIDTH 6 0
BBX 5 9 0 0
BITMAP
50
20
50
08
78
88
88
88
70
ENDCHAR
STARTCHAR ntilde
ENCODING 241
SWIDTH 500 0
DWIDTH 6 0
BBX 5 8 0 0
BITMAP
68
b0
00
b0
c8
88
88
88
ENDCHAR
STARTCHAR ograve
ENCODING 242
SWIDTH 500 0
DWIDTH 6 0
BBX 5 8 0 0
BITMAP
40
20
00
70
88
88
88
70
ENDCHAR
STARTCHAR oacute
ENCODING 243
SWIDTH 500 0
DWIDTH 6 0
BBX 5 8 0 0
BITMAP
10
20
00
70
88
88
88
70
ENDCHAR
STARTCHAR ocircumflex
ENCODING 244
SWIDTH 500 0
DWIDTH 6 0
BBX 5 8 0 0
BITMAP
20
50
00
70
88
88
88
70
ENDCHAR
STARTCHAR otilde
ENCODING 245
SWIDTH 500 0
DWIDTH 6 0
BBX 5 8 0 0
BITMAP
68
b0
00
70
88
88
88
70
ENDCHAR
STARTCHAR odieresis
ENCODING 246
SWIDTH 500 0
DWIDTH 6 0
BBX 5 7 0 0
BITMAP
50
00
70
88
88
88
70
ENDCHAR
STARTCHAR divide
ENCODING 247
SWIDTH 500 0
DWIDTH 6 0
BBX 5 5 0 1
BITMAP
20
00
f8
00
20
ENDCHAR
STARTCHAR oslash
ENCODING 248
SWIDTH 500 0
DWIDTH 6 0
BBX 5 5 0 0
BITMAP
78
98
a8
c8
f0
ENDCHAR
STARTCHAR ugrave
ENCODING 249
SWIDTH 500 0
DWIDTH 6 0
BBX 5 8 0 0
BITMAP
40
20
00
88
88
88
88
70
ENDCHAR
STARTCHAR uacute
ENCODING 250
SWIDTH 500 0
DWIDTH 6 0
BBX 5 8 0 0
BITMAP
10
20
00
88
88
88
88
70
ENDCHAR
STARTCHAR ucircumflex
ENCODING 251
SWIDTH 500 0
DWIDTH 6 0
BBX 5 8 0 0
BITMAP
20
50
00
88
88
88
88
70
ENDCHAR
STARTCHAR udieresis
ENCODING 252
SWIDTH 500 0
DWIDTH 6 0
BBX 5 7 0 0
BITMAP
50
00
88
88
88
88
70
ENDCHAR
STARTCHAR yacute
ENCODING 253
SWIDTH 500 0
DWIDTH 6 0
BBX 5 10 0 -2
BITMAP
10
20
00
88
88
88
50
20
40
80
ENDCHAR
STARTCHAR thorn
ENCODING 254
SWIDTH 500 0
DWIDTH 6 0
BBX 5 9 0 -2
BITMAP
80
80
f0
88
88
88
f0
80
80
ENDCHAR
STARTCHAR ydieresis
ENCODING 255
SWIDTH 500 0
DWIDTH 6 0
BBX 5 9 0 -2
BITMAP
50
00
88
88
88
50
20
40
80
ENDCHAR
ENDFONT
